<svg xmlns="http://www.w3.org/2000/svg" viewBox="0 0 24 24" width="24" height="24" color="#000000" fill="none">
    <path d="M10.7985 21.5171C10.3415 21.7559 9.87437 22 9.09969 22C6.53925 22 4 15.9545 4 13.1129C4 10.2713 6.07564 7.5 8.63608 7.5C9.94232 7.5 10.5125 7.79705 11.0102 8.05638C11.3958 8.25725 11.7379 8.43548 12.3449 8.43548C12.952 8.43548 13.2941 8.25725 13.6797 8.05638C14.1774 7.79705 14.7476 7.5 16.0538 7.5C17.5667 7.5 18.9103 8.46751 19.7565 9.84536C18.5561 10.4855 17.7446 11.7089 17.7446 13.1129C17.7446 14.6099 18.6671 15.9015 20 16.4999C19.0721 19.1892 17.3361 22 15.5902 22C14.8155 22 14.3484 21.7559 13.8914 21.5171C13.4537 21.2884 13.0253 21.0645 12.3449 21.0645C11.6646 21.0645 11.2362 21.2884 10.7985 21.5171Z" stroke="currentColor" stroke-width="1.5" stroke-linejoin="round" />
    <path d="M15.5 2V2.8C15.5 4.56731 14.1569 6 12.5 6V5.2C12.5 3.43269 13.8431 2 15.5 2Z" stroke="currentColor" stroke-width="1.5" stroke-linejoin="round" />
</svg>